Coordinates
version=1
nRows=19
nColumns=36
inDegrees=yes

Units are S.I. units (second, meters, Newtons, ...)
If the header above contains a line with 'inDegrees', this indicates whether rotational values are in degrees (yes) or radians (no).

endheader
time	pelvis_tilt	pelvis_list	pelvis_rotation	pelvis_tx	pelvis_ty	pelvis_tz	hip_flexion_r	hip_adduction_r	hip_rotation_r	knee_angle_r	knee_angle_r_beta	ankle_angle_r	subtalar_angle_r	mtp_angle_r	hip_flexion_l	hip_adduction_l	hip_rotation_l	knee_angle_l	knee_angle_l_beta	ankle_angle_l	subtalar_angle_l	mtp_angle_l	lumbar_extension	lumbar_bending	lumbar_rotation	arm_flex_r	arm_add_r	arm_rot_r	elbow_flex_r	pro_sup_r	arm_flex_l	arm_add_l	arm_rot_l	elbow_flex_l	pro_sup_l
      4.30000000	    -42.43753071	     -3.37344394	      4.24134377	      1.38850959	      0.58340654	      0.07548350	    111.57661927	    -14.08975880	     -0.04989365	     95.87399377	      1.67331686	     29.40043080	     -7.62890036	     -7.49999987	    111.96587527	     -8.27727161	      3.45598077	     94.68187587	      1.65251048	     20.55694808	    -19.70484215	     -7.49999987	    -27.83753148	      2.79744213	      4.21299257	     84.84848145	    -29.30392231	   -336.25875579	     89.03714070	     83.41604222	     90.81238722	    -19.05124655	     39.05576131	     93.31745287	     88.66460645
      4.31666670	    -42.13672927	     -3.34210263	      4.22099774	      1.38694068	      0.58399085	      0.07476671	    111.07853779	    -14.02567654	     -0.08571089	     95.62115291	      1.66890395	     29.41067995	     -7.67995623	     -7.49999987	    111.47336426	     -8.23139312	      3.46739148	     94.45568343	      1.64856267	     20.56598229	    -19.81316423	     -7.49999987	    -27.31069134	      2.79136481	      4.06609747	     84.12661352	    -29.44087901	   -336.21363241	     88.85118307	     81.55684997	     90.30678449	    -19.26909015	     38.31220806	     93.51547750	     86.79337809
      4.33333330	    -41.85067007	     -3.21824939	      4.16579015	      1.39815351	      0.59301729	      0.07697381	    110.32042910	    -13.87252975	     -0.06372286	     95.19875860	      1.66153178	     29.38885203	     -7.79348491	     -7.49999987	    110.70451103	     -8.17512973	      3.48091495	     94.07127335	      1.64185345	     20.82085040	    -19.70142270	     -7.49999987	    -26.89865352	      2.62346426	      3.90446422	     82.51224970	    -28.42334551	   -336.81531583	     89.63900303	     81.44122856	     88.10211019	    -20.30651019	     37.29170900	     93.90382919	     86.58288642
      4.35000000	    -41.42392280	     -3.11779514	      4.16733466	      1.39144116	      0.59556514	      0.07847984	    109.39043828	    -13.73761701	     -0.03576883	     94.72578477	      1.65327683	     29.40831510	     -7.93808218	     -7.49999987	    109.78951400	     -8.18781779	      3.39872248	     93.62100674	      1.63399482	     21.11140147	    -19.57016205	     -7.49999987	    -26.63811738	      2.74196123	      3.07678784	     82.63149110	    -26.83123032	   -336.87122646	     88.26434783	     82.95918737	     87.02465943	    -22.72107620	     36.65956601	     94.88552289	     87.85972031
      4.36666670	    -40.84282275	     -3.09940632	      4.15131391	      1.39799306	      0.60402813	      0.08336847	    108.02728981	    -13.55962230	     -0.18827881	     93.95848981	      1.63988501	     29.37496546	     -7.93714579	     -7.49999987	    108.57268510	     -8.21513169	      3.41842118	     92.94490050	      1.62219454	     21.29206876	    -19.45362615	     -7.49999987	    -26.21153861	      2.44204607	      2.89990428	     81.69047550	    -27.23802211	   -336.91412860	     88.44432188	     82.90075982	     85.64512100	    -23.84292179	     36.93224074	     94.39652548	     87.79082541
      4.38333330	    -40.84654750	     -3.03276381	      4.16044029	      1.39679692	      0.61967621	      0.08151137	    106.86261454	    -13.39967031	     -0.27918722	     92.72128844	      1.61829177	     29.20739740	     -8.20157709	     -7.49999987	    107.48456027	     -8.19638433	      3.29783553	     91.85303334	      1.60313786	     21.69170718	    -19.07714647	     -7.49999987	    -25.74608860	      2.45329639	      1.80031927	     79.60601880	    -25.48789288	   -337.76948879	     87.39974106	     80.61017202	     83.23335723	    -26.81126296	     37.27226096	     93.09492437	     85.26416155
      4.40000000	    -40.53547211	     -2.98855732	      4.22713640	      1.39857433	      0.63014251	      0.08230533	    105.00377678	    -13.29513276	     -0.48748886	     90.95834490	      1.58752260	     28.88431791	     -8.36386868	     -7.49999987	    105.70268198	     -8.11276138	      3.12629946	     90.26358307	      1.57539672	     21.75575917	    -18.98173806	     -7.49999987	    -25.69058530	      2.37855736	      1.61064119	     78.49584820	    -25.78364296	   -336.78124788	     86.18688313	     79.07511538	     81.78202670	    -27.49541749	     37.40953402	     91.31017421	     83.48266894
      4.41666670	    -40.48906838	     -3.09875009	      4.20981955	      1.41245389	      0.63966763	      0.08749960	    103.11468736	    -13.08294920	     -0.90099380	     88.99186531	      1.55320106	     28.60143532	     -8.46648750	     -7.49999987	    103.97323227	     -8.10640161	      3.16490399	     88.49651369	      1.54455554	     21.89200976	    -18.68576730	     -7.49999987	    -24.56846414	      2.31080090	      1.10618824	     73.36418456	    -25.28893861	   -338.93710315	     86.61868833	     79.46201362	     77.23354440	    -28.53825012	     36.39428587	     91.62787231	     84.09427314
      4.43333330	    -40.09352985	     -3.21159654	      4.23119426	      1.42352151	      0.66286114	      0.09450861	    100.22047209	    -12.67592388	     -1.35871820	     86.32856359	      1.50671767	     28.24292162	     -8.83658855	     -7.49999987	    101.30343983	     -8.12297868	      3.18493284	     86.02940198	      1.50149632	     21.88012446	    -18.64289349	     -7.49999987	    -24.55655102	      2.15488077	      0.81755710	     69.59126123	    -24.11970875	   -340.45126569	     84.68951198	     79.03645841	     73.51355737	    -29.53765351	     35.87150740	     88.76903186	     83.55616022
      4.45000000	    -39.53019488	     -3.36099407	      4.21467648	      1.42684474	      0.67252212	      0.09724321	     97.08248075	    -12.14630497	     -1.88655694	     83.52470057	      1.45778103	     27.87724636	     -9.15725070	     -7.49999987	     98.36756543	     -8.36049117	      3.10849128	     83.42723441	      1.45607993	     21.69666998	    -18.43862657	     -7.49999987	    -23.89196581	      1.94250207	      0.72031633	     64.99012817	    -23.88572374	   -341.45234174	     83.57188084	     79.55580356	     69.03132465	    -29.94967797	     34.25242423	     86.42653620	     84.21617796
      4.46666670	    -38.92453388	     -3.45279186	      4.22049518	      1.42715396	      0.67915510	      0.09720483	     94.18337135	    -11.68539052	     -2.39885517	     80.95366166	      1.41290794	     27.68611917	     -9.18903402	     -7.49999987	     95.59399708	     -8.68063033	      2.86861057	     81.02387432	      1.41413338	     21.35086745	    -18.26306468	     -7.49999987	    -23.15734866	      1.68504263	      0.39037748	     61.13383267	    -24.32592872	   -340.98506273	     83.09518790	     79.65109086	     65.77160553	    -31.17635444	     34.76175857	     85.17047506	     84.35417592
      4.48333330	    -38.43869679	     -3.58940028	      4.21406893	      1.43609803	      0.69681393	      0.10482342	     91.14384304	    -11.06602447	     -2.96552893	     78.02846536	      1.36185363	     27.19490495	     -9.74929241	     -7.49999987	     92.66241178	     -9.03666747	      2.66713511	     78.21194006	      1.36505587	     20.68750832	    -18.26692913	     -7.49999987	    -21.87179454	      1.43035551	      0.07716705	     54.56305431	    -23.17048686	   -343.21219385	     82.46552604	     78.44827520	     59.94381366	    -31.68976225	     32.44958140	     81.65753406	     84.01569927
      4.50000000	    -37.83838795	     -3.72031366	      4.18159126	      1.43652424	      0.71891432	      0.10419551	     87.72304905	    -10.48214445	     -3.66975037	     74.50432659	      1.30034581	     26.42124814	    -10.20519462	     -7.49999987	     89.34166093	     -9.51637578	      2.23477145	     74.81424431	      1.30575489	     19.59840623	    -18.08735848	     -7.49999987	    -21.23028211	      1.29492595	     -0.44658127	     50.13181014	    -22.49791631	   -343.52376609	     77.48101531	     76.85977034	     56.47885276	    -31.94408355	     31.98643740	     76.24169108	     82.36571941
      4.51666670	    -36.86228163	     -3.65949295	      3.93797472	      1.45914887	      0.73120983	      0.11110989	     83.73416891	     -9.63739965	     -4.19850930	     70.91314864	      1.23766793	     26.03884728	    -10.42429963	     -7.49999987	     85.07289533	    -10.13766995	      1.72977245	     71.07497695	      1.24049236	     19.01177478	    -17.15994685	     -7.49999987	    -20.39761270	      0.60756380	     -0.63241833	     42.79319437	    -21.41320422	   -345.82555530	     73.45748463	     75.19557353	     50.17954986	    -31.53334709	     29.36470381	     72.10843463	     81.36847668
      4.53333330	    -35.61222136	     -3.53343516	      3.62132416	      1.47195784	      0.74751914	      0.10304065	     79.19753097	     -8.83297244	     -4.67657650	     66.89809530	      1.16759203	     25.26617907	    -10.80346959	     -7.49999987	     80.06575862	    -10.64831658	      1.11896012	     66.74445457	      1.16491049	     18.30362896	    -16.08829570	     -7.49999987	    -19.61344889	      0.16616930	     -0.26976423	     37.57185165	    -21.03025546	   -347.74653930	     67.18619761	     73.74472255	     44.31424906	    -30.00305881	     26.89000956	     66.63175431	     80.07779573
      4.55000000	    -34.26206459	     -2.99788280	      3.06254832	      1.49144519	      0.76038892	      0.09593532	     74.62974644	     -8.02189509	     -4.60069064	     62.99735883	      1.09951133	     24.50061384	    -11.05773914	     -7.49999987	     74.56760049	    -11.04698270	      0.04602370	     62.24725815	      1.08641961	     17.56851128	    -14.86914622	     -7.49999987	    -18.23744020	     -0.48362881	      0.50162354	     32.20476928	    -21.10870491	   -349.19914431	     61.07737928	     72.69675231	     38.13124088	    -27.61449484	     23.48338631	     61.96212943	     79.24703142
      4.56666670	    -32.69009275	     -2.31239681	      2.44798014	      1.49862000	      0.78610311	      0.08467066	     69.42721894	     -7.53387769	     -4.57257990	     58.21961149	      1.01612391	     22.96626463	    -11.28112787	     -7.49999987	     68.36835771	    -11.08410314	     -1.43543816	     56.89555850	      0.99301483	     16.19001315	    -13.84175168	     -7.49999987	    -17.68793463	     -0.76602396	      0.72957828	     28.79077395	    -20.85204357	   -350.92922178	     53.13497277	     72.12260125	     33.30395194	    -24.67762992	     20.62427328	     54.94193201	     79.34363670
      4.58333330	    -32.13542374	     -1.78089094	      1.86038193	      1.48775237	      0.79190793	      0.09050224	     66.49460542	     -7.16942958	     -4.48686871	     54.85487703	      0.95739821	     21.49184576	    -11.37169888	     -7.49999987	     64.81080446	    -11.33910076	     -3.01982919	     53.14592646	      0.92757140	     15.53217349	    -12.56095583	     -7.49999987	    -16.22712082	     -1.13755352	      0.83330463	     26.40700457	    -20.86956288	   -351.92199742	     48.11885349	     72.13488135	     30.28840379	    -23.98649484	     19.79605493	     50.54498294	     79.70250825
      4.60000000	    -31.54240604	     -1.35339221	      1.34396229	      1.48917517	      0.80754549	      0.09843599	     63.64878192	     -6.78573129	     -4.65484045	     51.37173298	      0.89660588	     19.77538194	    -11.72082562	     -7.49999987	     61.71118028	    -11.57091428	     -4.49971214	     49.60311520	      0.86573768	     14.40106018	    -12.21972166	     -7.49999987	    -15.11847545	     -1.54907202	      1.58235031	     23.92143043	    -20.77704136	   -352.50009848	     43.31551643	     72.05452078	     27.38710760	    -23.15770194	     19.28511290	     47.54150352	     79.74569326
